HIERARCHY
ROOT Hips
{
	OFFSET 0.00000 0.00000 0.00000
	CHANNELS 6 Xposition Yposition Zposition Yrotation Zrotation Xrotation 
	JOINT Lumbar
	{
		OFFSET 0 0 0
		CHANNELS 3 Zrotation Xrotation Yrotation
		JOINT Neck
		{
			OFFSET 0.00 0.2701 0.00
			CHANNELS 3 Zrotation Xrotation Yrotation
			End Site
			{
				OFFSET 0.00 0.1379 0.00
			}
		}
		JOINT RightShoulder
		{
			OFFSET 0.0119 0.2289 0.1181
			CHANNELS 3 Zrotation Xrotation Yrotation
			JOINT RightElbow
			{
				OFFSET 0.00 -0.1475 0.00
				CHANNELS 2 Zrotation Yrotation
				JOINT RightWrist
				{
					OFFSET 0.00 -0.1605 0.00
					CHANNELS 2 Zrotation Xrotation
					End Site
					{
						OFFSET 0.0040 -0.1068 0.0006
					}
				}
			}
		}
		JOINT LeftShoulder
		{
			OFFSET 0.0119 0.2289 -0.1181
			CHANNELS 3 Zrotation Xrotation Yrotation
			JOINT LeftElbow
			{
				OFFSET 0.00 -0.1475 0.00
				CHANNELS 2 Zrotation Yrotation
				JOINT LeftWrist
				{
					OFFSET 0.00 -0.1605 0.00
					CHANNELS 2 Zrotation Xrotation
					End Site
					{
						OFFSET 0.0040 -0.1068 -0.0006
					}
				}
			}
		}
	}
	JOINT RightHip
	{
		OFFSET 0.0316 -0.0424 0.0458
		CHANNELS 3 Zrotation Xrotation Yrotation
		JOINT RightKnee
		{
			OFFSET 0.00 -0.2438 0.00
			CHANNELS 1 Zrotation
			JOINT RightAnkle
			{
				OFFSET 0.00 -0.2449 0.00
				CHANNELS 3 Zrotation Xrotation Yrotation
				End Site
				{
					OFFSET 0.1237 -0.0542 0.0051
				}
			}
		}
	}
	JOINT LeftHip
	{
		OFFSET 0.0316 -0.0424 -0.0458
		CHANNELS 3 Zrotation Xrotation Yrotation
		JOINT LeftKnee
		{
			OFFSET 0.00 -0.2438 0.00
			CHANNELS 1 Zrotation
			JOINT LeftAnkle
			{
				OFFSET 0.00 -0.2449 0.00
				CHANNELS 3 Zrotation Xrotation Yrotation
				End Site
				{
					OFFSET 0.1237 -0.0542 -0.0051
				}
			}
		}
	}
}
MOTION
Frames: 14
Frame Time: 0.02
0.00015 2e-05 5e-05 -178.99368 -35.79771 -3.42019 43.80541 3.07862 -3.87007 -8.17369 -2.55293 -1.01983 75.91052 -98.854 55.63573 5.78632 105.70334 12.44711 2.98066 58.38317 99.71695 -55.63171 6.17549 -95.84321 10.93251 -0.89341 40.61192 -3.30229 -7.62156 -22.23536 -6.65377 -2.33309 -3.35293 44.24782 9.53543 2.32221 -27.48839 -6.44269 1.86792 3.11899
6e-05 2e-05 5e-05 -178.99384 -35.81425 -3.4188 43.81529 3.08068 -3.85884 -8.18454 -2.54853 -1.02003 75.87917 -98.84918 55.63541 5.78644 105.67212 12.45347 2.99023 58.33453 99.72242 -55.63171 6.18505 -95.87137 10.93445 -0.88215 40.62363 -3.31119 -7.65683 -22.23684 -6.65271 -2.32669 -3.35117 44.2535 9.59564 2.57862 -27.48696 -6.44792 1.83581 3.10427
-2e-05 2e-05 5e-05 -178.99399 -35.83073 -3.41743 43.82514 3.08274 -3.84764 -8.19539 -2.54414 -1.02024 75.84788 -98.84436 55.63509 5.78655 105.64097 12.45985 2.99978 58.28606 99.72785 -55.63171 6.19457 -95.89944 10.93645 -0.87092 40.63527 -3.3201 -7.69221 -22.23832 -6.65166 -2.32029 -3.34941 44.25914 9.65566 2.8342 -27.48554 -6.45314 1.80379 3.0896
-0.0001 2e-05 6e-05 -178.99415 -35.84721 -3.41605 43.83499 3.08479 -3.83644 -8.20621 -2.53976 -1.02045 75.81662 -98.83955 55.63476 5.78667 105.60984 12.4662 3.00933 58.23757 99.7333 -55.63172 6.20409 -95.92751 10.93839 -0.85969 40.64694 -3.32898 -7.72741 -22.2398 -6.6506 -2.3139 -3.34766 44.2648 9.71568 3.08981 -27.48411 -6.45835 1.77178 3.07492
-0.00018 2e-05 6e-05 -178.99432 -35.86377 -3.41467 43.84486 3.08685 -3.82521 -8.21701 -2.53537 -1.02065 75.78533 -98.83474 55.63444 5.78679 105.57865 12.47251 3.01889 58.18888 99.7388 -55.63172 6.21365 -95.95566 10.94027 -0.84843 40.65869 -3.33783 -7.76242 -22.24129 -6.64955 -2.30752 -3.34591 44.2705 9.7759 3.34629 -27.48268 -6.46359 1.73968 3.0602
-0.00026 2e-05 6e-05 -178.99443 -35.88009 -3.4133 43.85466 3.0889 -3.8141 -8.22796 -2.53096 -1.02086 75.75404 -98.8299 55.63412 5.7869 105.5476 12.47904 3.02842 58.1409 99.74411 -55.63172 6.22308 -95.98358 10.94252 -0.83727 40.6701 -3.34686 -7.79858 -22.24274 -6.64849 -2.30109 -3.34412 44.276 9.83548 3.59999 -27.48128 -6.46877 1.70785 3.04563
-0.00035 2e-05 7e-05 -178.99466 -35.89685 -3.4119 43.86461 3.09097 -3.80274 -8.23861 -2.52661 -1.02106 75.72275 -98.82511 55.63379 5.78702 105.51629 12.48513 3.038 58.09153 99.74978 -55.63172 6.23277 -96.01192 10.944 -0.82592 40.68218 -3.35552 -7.83239 -22.24427 -6.64745 -2.29477 -3.34242 44.2819 9.89626 3.85892 -27.47983 -6.47406 1.6755 3.03076
-0.00043 2e-05 7e-05 -178.99478 -35.91321 -3.41053 43.87441 3.09302 -3.79162 -8.24952 -2.52221 -1.02127 75.69151 -98.8203 55.63347 5.78714 105.48523 12.49161 3.04754 58.04349 99.75512 -55.63173 6.24221 -96.0399 10.9462 -0.81474 40.69364 -3.36453 -7.86837 -22.24572 -6.64639 -2.28834 -3.34064 44.28743 9.95596 4.11315 -27.47841 -6.47924 1.64362 3.01617
-0.00051 2e-05 7e-05 -178.99477 -35.92906 -3.4092 43.88408 3.09506 -3.78077 -8.2608 -2.51774 -1.02149 75.66014 -98.8154 55.63316 5.78725 105.45445 12.49862 3.05702 57.99685 99.76004 -55.63173 6.25138 -96.06735 10.94928 -0.80376 40.70435 -3.37396 -7.90702 -22.24709 -6.6453 -2.2818 -3.33873 44.29254 10.01425 4.36126 -27.47705 -6.48429 1.61235 3.00191
-0.00059 2e-05 8e-05 -178.99551 -35.94781 -3.40765 43.89464 3.09721 -3.7683 -8.27013 -2.51365 -1.02165 75.62895 -98.81082 55.63278 5.78739 105.42195 12.50275 3.0668 57.94151 99.76734 -55.63173 6.2622 -96.09758 10.94731 -0.79162 40.71939 -3.38093 -7.93039 -22.24897 -6.64438 -2.27597 -3.33749 44.30016 10.08042 4.64348 -27.47541 -6.49012 1.57766 2.98573
-0.00067 2e-05 8e-05 -178.99465 -35.96043 -3.40656 43.90325 3.09909 -3.75929 -8.28348 -2.50875 -1.02195 75.59775 -98.80566 55.63256 5.78747 105.39317 12.51286 3.07599 57.90489 99.76965 -55.63173 6.26948 -96.12209 10.95594 -0.78195 40.72528 -3.3931 -7.98591 -22.24977 -6.64309 -2.26861 -3.33485 44.30243 10.13011 4.85442 -27.47435 -6.49431 1.55017 2.97359
-0.00074 2e-05 9e-05 -178.98957 -35.95601 -3.40687 43.90678 3.10049 -3.75953 -8.30881 -2.50162 -1.02264 75.56326 -98.79815 55.63278 5.78739 105.37393 12.54032 3.08315 57.91713 99.75794 -55.63174 6.26737 -96.12959 10.99449 -0.77887 40.7057 -3.41953 -8.13098 -22.24744 -6.64076 -2.25708 -3.32835 44.28992 10.13289 4.86174 -27.47503 -6.49385 1.54267 2.97289
-0.0008 1e-05 9e-05 -178.98285 -35.94529 -3.40759 43.90809 3.10157 -3.76331 -8.33802 -2.49368 -1.02352 75.52935 -98.79018 55.63316 5.78725 105.35853 12.57359 3.08978 57.94866 99.7413 -55.63174 6.26165 -96.13157 11.0435 -0.77831 40.67677 -3.45114 -8.30797 -22.244 -6.63805 -2.244 -3.32046 44.27182 10.11936 4.79863 -27.47624 -6.49176 1.54237 2.97618
-0.00086 1e-05 0.0001 -178.97682 -35.93784 -3.40803 43.91049 3.10264 -3.76559 -8.36486 -2.48613 -1.02429 75.49733 -98.78294 55.63346 5.78714 105.34185 12.60364 3.09691 57.97293 99.72715 -55.63174 6.25738 -96.13694 11.08723 -0.77669 40.65266 -3.4804 -8.46963 -22.2412 -6.63553 -2.23159 -3.31322 44.2566 10.11451 4.77337 -27.47714 -6.49051 1.53857 2.9774
